<?xml version="1.0" encoding="utf-8"?>
<svg viewBox="-61.991 204.796 467.55 147.63" style="enable-background:new -153 -46 652 652;" xmlns="http://www.w3.org/2000/svg">
  <defs>
    <style type="text/css">
		.st1 {
			fill-rule: evenodd;
			clip-rule: evenodd;
			fill: #FFFFFF;
		}

		.st2 {
			fill-rule: evenodd;
			clip-rule: evenodd;
			fill: #D1202F;
		}

		.st3 {
			fill-rule: evenodd;
			clip-rule: evenodd;
			fill: #FFC531;
		}
	</style>
  </defs>
  <path class="st1" d="M383.4,237.4c-0.7,0-0.7,0-0.7,0c0-2.9,0-2.9,0-2.9s0,0,0.7,0c2.2,0,2.2,0,2.2,0.7 C385.6,236.6,384.9,237.4,383.4,237.4z M388.5,240.2c0-0.7-0.7-1.4-1.4-1.4l0,0c0.7-1.4,1.4-2.2,1.4-3.6c0-0.7,0-1.4-0.7-1.4 c-0.7-1.4-2.2-1.4-4.3-1.4c-1.4,0-2.9,0-3.6,0c0,10.8,0,10.8,0,10.8c2.2,0,2.2,0,2.2,0c0-3.6,0-3.6,0-3.6c1.4,0,1.4,0,1.4,0 c1.4,0,2.2,0,2.2,2.2c0,0.7,1.4,1.4,1.4,1.4c2.9,0,2.9,0,2.9,0C388.5,243.1,388.5,242.4,388.5,240.2z M384.2,246 c-5,0-8.6-3.6-8.6-8.6c0-5,3.6-8.6,8.6-8.6c4.3,0,8.6,3.6,8.6,8.6C392.8,242.4,388.5,246,384.2,246z M384.2,226.6 c-6.5,0-11.5,5-11.5,10.8c0,6.5,5,11.5,11.5,11.5c6.5,0,11.5-5,11.5-11.5C395.7,231.6,390.6,226.6,384.2,226.6z M230.8,244.6 c2.9,0,5-1.4,7.2-4.3c2.2-2.2,2.2-6.5,0.7-8.6c-7.2,0-7.2,0-7.2,0c0,0.7,1.4,2.9,1.4,3.6c0,2.9-2.2,6.5-2.9,7.2 c-1.4,0-1.4,0.7-1.4,0.7C228.6,244.6,230.1,244.6,230.8,244.6z M351,292.1c-2.9,0-5.8,2.2-5.8,5c0,3.6,2.2,5.8,5,5.8 s5.8-2.2,5.8-5.8C356.1,294.2,354.6,292.1,351,292.1z M361.1,253.2c-7.9,0-13.7,7.9-13.7,7.9c2.9-7.2,2.9-7.2,2.9-7.2 c-13,0-13,0-13,0c-5.8,16.6-5.8,16.6-5.8,16.6c-4.3,5-9.4,7.2-15.1,8.6c18-44.6,18-44.6,18-44.6c-5.8,0-5.8,0-5.8,0l0,0 c-14.4,0-14.4,0-14.4,0c-23,0-39.6,13.7-39.6,28.1c0,5,2.2,7.9,5,10.1c2.2,0,5,0,8.6,0c-0.7-0.7-2.9-5-2.9-7.9 c0-13.7,10.8-25.2,28.8-25.2c2.9,0,2.9,0,2.9,0l-15.8,41.8c-31,2.2-39.6,10.1-39.6,18.7c0,9.4,11.5,13.7,18,13.7 c19.4,0,29.5-16.6,34.6-28.8c5-0.7,9.4-2.9,13-4.3c-7.9,22.3-7.9,22.3-7.9,22.3c13,0,13,0,13,0c12.2-33.1,12.2-33.1,12.2-33.1 s3.6-5.8,8.6-5.8c4.3,0,5.8,0.7,5.8,0.7c8.6-9.4,8.6-9.4,8.6-9.4S365.4,253.2,361.1,253.2z M280.5,306.5c-3.6,0-7.2-2.2-7.2-6.5 c0-7.9,11.5-11.5,25.9-13.7C294.9,297.1,289.8,307.2,280.5,306.5z M193.4,253.2c-7.9,0-13,7.9-13,7.9c2.9-7.2,2.9-7.2,2.9-7.2 c-13,0-13,0-13,0c-7.9,19.4-7.9,19.4-7.9,19.4c0,0.7,0,0.7-0.7,2.2c-7.2,13.7-15.1,20.2-15.8,20.2c-1.4,0-1.4,0-1.4-2.2 c1.4-1.4,4.3-11.5,11.5-28.8c-13,0-13,0-13,0c-2.2,5.8-6.5,18.7-7.9,23c-4.3,5-9.4,7.9-10.8,7.9c-2.2,0-2.2-2.2-2.2-2.9 c0-6.5,7.9-33.1,23.8-33.1c3.6,0,6.5,1.4,8.6,1.4c2.2-6.5,2.2-6.5,2.2-6.5c-2.9-1.4-5.8-1.4-10.8-1.4c-18.7,0-29.5,14.4-34.6,27.4 c-1.4,1.4-2.9,5.8-5,8.6c-6.5,9.4-17.3,14.4-23.8,14.4c-7.9,0-12.2-5-12.2-16.6c0-13,15.1-47.5,31.7-47.5c6.5,0,7.2,5,7.2,6.5 c0,4.3-0.7,5.8-4.3,7.9c13,0,13,0,13,0c2.2-0.7,4.3-3.6,4.3-8.6c0-5-5-11.5-18.7-11.5c-31,0-49,33.8-49,54 c0,20.9,15.1,23.8,25.2,23.8c9.4,0,21.6-7.2,27.4-14.4c1.4-1.4,2.2-2.2,2.2-4.3c0.7,10.1,7.9,10.1,10.1,10.1c5,0,9.4-2.9,13.7-5.8 c0.7,3.6,3.6,5.8,8.6,5.8c4.3,0,9.4-4.3,14.4-9.4c-3.6,9.4-3.6,9.4-3.6,9.4c13,0,13,0,13,0c12.2-33.1,12.2-33.1,12.2-33.1 s3.6-5.8,8.6-5.8c4.3,0,5,0.7,5,0.7c9.4-10.1,9.4-10.1,9.4-10.1S198.4,253.2,193.4,253.2z M235.8,256.1c-0.7,0.7-2.2,1.4-3.6,5 c-1.4,1.4-2.9,3.6-5,6.5c-7.2,10.8-15.8,21.6-18.7,24.5c-4.3,2.9-5.8,3.6-7.9,3.6c0,0,0,0,0-1.4c0.7-2.2,14.4-38.2,21.6-56.2 c-13,0-13,0-13,0c-2.2,5-14.4,38.2-18.7,49c0,2.2-2.2,5-2.2,7.9c0,5.8,3.6,7.9,9.4,7.9c3.6,0,8.6-2.9,13-5.8 c0.7-1.4,0.7-1.4,0.7-1.4c0.7-0.7,2.2-1.4,2.9-2.9c0.7,5.8,7.2,10.1,15.1,10.1c9.4,0,18.7-5.8,18.7-16.6s-7.2-15.8-7.2-22.3 c0-2.2,2.2-4.3,3.6-4.3c3.6,0,5,2.9,5,2.9c6.5-6.5,6.5-6.5,6.5-6.5s-5-5-14.4-2.9C240.2,253.9,238,254.6,235.8,256.1z M225.8,297.1 c-2.9,0-6.5-2.9-6.5-7.2c0-2.2,0.7-3.6,2.2-5c0.7-0.7,1.4-1.4,1.4-2.9c2.9-3.6,6.5-8.6,7.9-11.5c2.2,5.8,5,8.6,5,15.8 C235.8,290.6,232.2,297.1,225.8,297.1z"/>
  <path class="st0" d="M-10.4,256.8c2.2-2.9,6.5-3.6,8.6-2.9c0,0,0.7,1.4,0,1.4c0,0.7,0,0.7-1.4,0.7C-5.4,256.1-6.8,256.1-10.4,256.8 L-10.4,256.8L-10.4,256.8z M20.6,265.4c0-3.6-2.9-5.8-5-6.5c-0.7,0-0.7,0.7-0.7,0.7c0,1.4,0,1.4,0,1.4c2.2,1.4,3.6,2.9,4.3,4.3 c0,0,0,0,0,1.4c1.4,0,1.4,0,1.4,0V265.4z M-3.9,275.5c2.2,2.9,2.9,2.9,3.6,2.9c1.4,0.7,1.4,0.7,2.2,0.7c0,0,0.7-0.7,2.9-0.7 c1.4,0,1.4-1.4,1.4-1.4s0-0.7-1.4-0.7c-0.7,0-0.7,0-0.7,0c-1.4,0-1.4,0-2.2,0l0,0c-0.7,0-0.7,0-0.7,0h-1.4c-0.7-0.7-0.7-0.7-1.4-0.7 c0-0.7,0-0.7-1.4-0.7h-0.7V275.5z M-6.1,261.1c-1.4-0.7-2.9,0-4.3,1.4c0,0.7-1.4,0.7,0,2.2c0,0,0,0.7,0.7,0c0,0,2.2,0,2.9,0.7 c2.2,0,2.9,1.4,2.9,1.4l0.7,0.7c0,0,1.4,0,1.4-0.7c0.7,0,0.7-1.4,0.7-2.2C-1.8,262.6-3.9,261.1-6.1,261.1z M9,267.6 c0,1.4-1.4,2.2,0,2.2c0,0.7,0,0.7,0,0.7c0,1.4,0.7,1.4,0.7,1.4c0.7,0,2.2-1.4,2.9,0c2.2,0,2.9,0.7,2.9,1.4c1.4,0,1.4,0,1.4,0 c0.7-0.7,0.7-0.7,0.7-1.4c0-2.2-2.2-2.9-2.9-4.3C12.6,266.9,10.5,266.9,9,267.6z M14.8,284.2c-0.7-0.7-0.7-1.4-2.2-1.4v0.7 c-0.7,0.7-0.7,0.7-0.7,0.7c-0.7,1.4-0.7,1.4-2.2,1.4c-0.7,0.7-2.9,0.7-3.6,1.4c-2.9,0-5,0-7.9-0.7s-6.5-2.2-7.2-3.6 c-0.7-1.4-2.2-2.2-2.9-4.3l-1.4-0.7c0-0.7,0-0.7,0-2.2c0,0,0,0,0-0.7c0,0-0.7,0-1.4,0.7c-1.4,0-2.2,1.4-2.2,1.4c0,0.7,0.7,0,2.2,0.7 l0,0c0,2.2,2.9,8.6,7.9,11.5c0.7,0.7,2.2,0.7,2.9,2.2l0,0c2.2,0,2.9,0,3.6,0c6.5,0,12.2-2.9,13-5l0,0c1.4-0.7,2.2,0.7,2.2,0 C16.2,285.6,14.8,285.6,14.8,284.2z"/>
  <path class="st2" d="M22.7,212.9c0.7,43.9,0.7,43.9,0.7,43.9c4.3,0.7,4.3,0.7,4.3,0.7c0-30.2,0-30.2,0-30.2c0-2.9-1.4-5.8-2.2-7.9 c-2.9-7.2-2.9-7.2-2.9-7.2V212.9z"/>
  <path class="st2" d="M-51.4,238.8c-1.4,0-1.4,0-1.4-1.4c2.2,5.8,2.2,5.8,2.2,5.8c0.7,2.2,2.2,4.3,2.9,5.8 C-27,275.5-27,275.5-27,275.5c2.2-2.2,2.2-2.2,2.2-2.2C-51.4,238.8-51.4,238.8-51.4,238.8z"/>
  <path class="st3" d="M55.8,277c0.7-2.9,2.2-6.5,3.6-9.4c-35.3-10.8-35.3-10.8-35.3-10.8c-1.4-43.9-1.4-43.9-1.4-43.9 c0-2.2-2.9-2.9-3.6-0.7c-25.9,34.6-25.9,34.6-25.9,34.6c-6.5-0.7-31-8.6-43.2-12.2c-2.2,0-3.6,1.4-2.2,3.6 c27.4,35.3,27.4,35.3,27.4,35.3c-25.9,36-25.9,36-25.9,36c-2.2,0.7,0,3.6,2.9,2.9c41.8-13.7,41.8-13.7,41.8-13.7 c21.6,28.1,21.6,28.1,21.6,28.1c5,5.8,5,5.8,5,5.8c1.4,2.2,4.3,1.4,4.3-0.7c-0.7-43.9-0.7-43.9-0.7-43.9L55.8,277z M-0.3,276.2h1.4 c0,0,0,0,0.7,0l0,0c0.7,0,0.7,0,2.2,0c0,0,0,0,0.7,0c1.4,0,1.4,0.7,1.4,0.7s0,1.4-1.4,1.4c-2.2,0-2.9,0.7-2.9,0.7 c-0.7,0-0.7,0-2.2-0.7c-0.7,0-1.4,0-3.6-2.9v-1.4h0.7c1.4,0,1.4,0,1.4,1.4C-1,275.5-1,275.5-0.3,276.2z M-9.7,256.8 c1.4-2.9,5.8-4.3,7.9-2.9c0,0,0.7,0.7,0,0.7c0,1.4,0,1.4-1.4,1.4C-5.4,256.1-6.8,256.1-9.7,256.8L-9.7,256.8z M-11.1,262.6 c2.2-0.7,2.9-2.2,5-0.7c2.2,0,4.3,0.7,5,2.9c0,0.7,0,1.4-0.7,1.4c0,1.4-1.4,1.4-1.4,1.4l-0.7-1.4c0,0-1.4-0.7-2.9-0.7 c-1.4-0.7-2.9-0.7-2.9-0.7c-1.4,0.7-1.4,0-1.4,0C-11.8,263.3-11.1,263.3-11.1,262.6z M14.8,285.6c0,1.4-0.7-0.7-2.2,0l0,0 c-0.7,2.2-6.5,5-13,5c-0.7,0-1.4,0-3.6,0l0,0c-1.4-0.7-2.2-0.7-2.9-1.4c-5-3.6-7.9-10.1-7.9-12.2l0,0c-1.4-0.7-2.2,0-2.2-0.7 c0,0,0.7-0.7,2.2-0.7c0.7-1.4,1.4-1.4,1.4-1.4c0,1.4,0,1.4,0,1.4c0,0.7,0,0.7,0,1.4l1.4,1.4c0.7,1.4,2.2,2.9,2.9,3.6 c0.7,2.2,3.6,2.9,7.2,3.6c2.9,1.4,4.3,1.4,7.9,1.4c0.7-1.4,2.9-1.4,3.6-2.2c1.4,0,1.4,0,2.2-0.7c0,0,0,0,0.7-1.4V282 c1.4,0,1.4,0.7,2.2,2.2C14.8,284.9,15.5,284.9,14.8,285.6z M17,273.4c0,0,0,0-1.4,0c0-0.7-0.7-2.2-2.9-2.2c-0.7-0.7-1.4,0-2.9,0 c0,0-0.7,0-0.7-0.7c0,0,0,0,0-1.4c-1.4,0,0-0.7,0-1.4c2.2-1.4,3.6-1.4,5.8,0c0.7,0.7,2.9,1.4,2.9,3.6 C17.7,272.6,17.7,272.6,17,273.4z M20.6,266.2c0,0,0,0-0.7,0c0-0.7,0-0.7,0-0.7c-0.7-2.2-2.9-2.9-5-5c0,0,0,0,0-0.7 c0,0,0-0.7,0.7-0.7c2.2,0.7,5,2.9,5,6.5V266.2z"/>
  <path class="st2" d="M54.4,282c0.7-1.4,0.7-2.9,0.7-4.3c-31.7,10.1-31.7,10.1-31.7,10.1c1.4,43.9,1.4,43.9,1.4,43.9 c0,2.2-3.6,2.9-4.3,1.4c-26.6-34.6-26.6-34.6-26.6-34.6c-41.8,13.7-41.8,13.7-41.8,13.7c-0.7,0-0.7,0-2.2,0l0,0c5,2.2,5,2.2,5,2.2 c2.2,0.7,2.9,0.7,4.3,0c34.6-11.5,34.6-11.5,34.6-11.5c25.9,33.8,25.9,33.8,25.9,33.8c2.9,3.6,9.4,2.2,9.4-3.6 c-0.7-41.8-0.7-41.8-0.7-41.8C54.4,282,54.4,282,54.4,282z"/>
</svg>